<?xml version="1.0" standalone="no"?>
<!DOCTYPE svg PUBLIC "-//W3C//DTD SVG 20010904//EN"
 "http://www.w3.org/TR/2001/REC-SVG-20010904/DTD/svg10.dtd">
<svg version="1.0" xmlns="http://www.w3.org/2000/svg"
 width="2306.000000pt" height="2306.000000pt" viewBox="0 0 2306.000000 2306.000000"
 preserveAspectRatio="xMidYMid meet">
<metadata>
Created by potrace 1.11, written by Peter Selinger 2001-2013
</metadata>
<g transform="translate(0.000000,2306.000000) scale(0.100000,-0.100000)"
fill="#000000" stroke="none">
<path d="M9935 17613 c-390 -778 -742 -1478 -781 -1554 -39 -77 -69 -139 -66
-139 2 0 0 -6 -6 -12 -7 -10 -1240 -2462 -1699 -3380 l-28 -56 -35 46 c-36 48
-212 276 -233 302 -7 8 -48 62 -92 120 -44 58 -84 110 -90 117 -13 16 -17 21
-95 123 -35 47 -67 87 -70 90 -3 3 -39 50 -80 105 -41 55 -77 102 -80 105 -5
4 -48 60 -255 331 -27 36 -71 92 -96 125 -25 32 -121 158 -214 279 -93 121
-172 222 -175 225 -3 3 -25 32 -50 65 -106 140 -242 317 -255 333 -8 9 -42 53
-75 97 -33 44 -68 89 -77 101 -10 12 -92 118 -183 236 l-164 215 -17 -31 c-9
-17 -589 -1174 -1289 -2571 -700 -1397 -1278 -2549 -1283 -2560 -6 -11 -13
-27 -17 -35 -92 -190 -1477 -2946 -1482 -2948 -5 -2 -8 -11 -8 -21 0 -9 -4
-21 -9 -26 -13 -14 -651 -1292 -651 -1304 0 -5 -3 -11 -7 -13 -10 -4 -73 -130
-73 -145 0 -6 -3 -13 -7 -15 -7 -3 -105 -195 -169 -330 l-23 -47 234 -118
c129 -64 236 -115 238 -112 3 2 307 607 677 1344 369 737 675 1345 678 1350 4
6 7 12 7 15 1 3 91 183 200 400 109 217 199 397 200 400 1 3 19 39 40 80 44
85 78 153 79 160 1 3 4 10 8 15 6 9 432 859 2152 4288 l696 1389 0 -59 c1
-313 -2 -1853 -3 -2232 l-2 -485 70 -97 c38 -54 77 -107 85 -119 8 -12 40 -56
71 -98 31 -43 101 -140 157 -217 55 -77 105 -144 109 -150 14 -17 157 -215
168 -233 6 -8 33 -46 60 -83 28 -37 61 -84 75 -103 14 -20 33 -46 42 -58 9
-13 80 -110 157 -216 77 -107 147 -204 156 -215 8 -12 83 -116 166 -230 136
-188 149 -210 137 -227 -13 -19 -339 -444 -701 -915 -43 -55 -132 -172 -198
-259 -67 -88 -125 -164 -130 -170 -27 -33 -65 -83 -140 -181 -46 -60 -87 -114
-91 -120 -5 -5 -34 -43 -65 -83 l-56 -73 115 -112 c126 -122 511 -496 678
-657 298 -287 787 -760 905 -875 34 -33 171 -166 305 -295 254 -246 268 -259
636 -616 126 -122 252 -243 279 -269 28 -27 160 -154 294 -284 257 -250 275
-267 642 -621 128 -124 241 -233 252 -243 23 -23 28 -19 14 13 -5 14 -11 30
-13 35 -3 12 -106 319 -298 885 -81 239 -149 442 -151 450 -3 8 -24 73 -49
143 -24 70 -45 130 -45 132 -1 3 -4 10 -6 17 -9 24 -106 313 -109 323 -5 23
-38 122 -46 140 -5 11 -52 148 -104 305 -53 157 -186 553 -296 880 -111 327
-235 696 -276 820 -41 124 -79 234 -84 245 -4 11 -48 139 -96 285 -48 146 -97
293 -109 326 l-22 62 27 63 c15 35 39 91 54 124 15 33 34 74 41 90 61 135 118
264 150 335 62 141 70 158 150 335 68 150 122 270 327 730 27 61 55 122 63
138 13 26 11 30 -46 105 -178 233 -247 322 -444 577 -119 154 -226 293 -238
309 -12 17 -32 41 -44 55 l-22 26 861 1715 c473 943 863 1720 866 1725 4 6 7
12 7 15 1 3 80 163 177 355 863 1719 1081 2151 1085 2155 3 3 3 -4 0 -15 -3
-11 -8 -38 -12 -60 -12 -81 -26 -173 -46 -295 -31 -188 -36 -220 -44 -277 -8
-50 -12 -79 -30 -188 -9 -55 -18 -116 -21 -135 -2 -19 -7 -44 -9 -56 -3 -12
-7 -39 -10 -60 -5 -35 -8 -53 -20 -129 -2 -11 -6 -38 -10 -60 -3 -22 -7 -47
-10 -55 -2 -8 -6 -37 -10 -64 -3 -27 -13 -87 -21 -135 -8 -47 -18 -104 -20
-126 -3 -22 -30 -191 -59 -375 -30 -184 -57 -357 -61 -385 -3 -27 -8 -53 -10
-56 -1 -3 -6 -28 -9 -55 -3 -27 -10 -71 -15 -99 -5 -27 -11 -66 -14 -85 -3
-19 -14 -91 -25 -160 -11 -69 -22 -141 -25 -160 -3 -19 -8 -44 -10 -56 -2 -12
-7 -43 -11 -70 -4 -27 -12 -80 -19 -119 l-12 -70 59 -95 c33 -52 71 -113 85
-135 45 -71 67 -106 213 -343 79 -128 161 -260 183 -295 21 -34 51 -82 66
-107 15 -25 45 -73 66 -107 22 -34 70 -113 109 -175 38 -62 138 -223 223 -358
l153 -245 -6 -63 c-4 -35 -8 -71 -10 -81 -2 -10 -6 -42 -10 -72 -3 -30 -8 -65
-10 -79 -2 -14 -6 -52 -10 -85 -4 -32 -8 -66 -10 -75 -1 -8 -6 -40 -9 -71 -4
-31 -8 -65 -10 -75 -2 -11 -7 -48 -11 -84 -4 -36 -9 -73 -10 -82 -2 -9 -6 -44
-10 -77 -3 -33 -8 -68 -10 -79 -2 -10 -6 -43 -9 -73 -3 -30 -12 -102 -21 -160
-8 -58 -17 -132 -20 -165 -3 -32 -7 -66 -10 -74 -3 -14 -13 -85 -20 -150 -12
-114 -16 -148 -20 -165 -2 -11 -7 -47 -11 -79 -3 -33 -7 -67 -9 -75 -2 -9 -6
-45 -10 -81 -4 -36 -8 -72 -10 -80 -5 -30 -15 -96 -21 -149 -3 -30 -8 -63 -10
-75 -2 -12 -6 -43 -9 -71 -3 -27 -9 -84 -15 -125 -5 -41 -12 -95 -15 -120 -3
-25 -7 -61 -10 -80 -3 -19 -7 -53 -10 -75 -2 -22 -7 -57 -10 -77 -12 -89 -15
-111 -25 -195 -15 -132 -21 -176 -26 -193 -3 -11 -1 -11 9 2 8 10 81 88 163
174 162 169 170 178 384 404 80 84 172 180 205 214 33 34 112 118 175 185 63
68 144 153 180 191 80 83 328 344 393 414 27 28 112 118 190 200 173 181 215
225 387 406 74 78 167 175 205 216 l70 73 70 6 c39 3 86 7 105 10 19 2 62 7
95 10 33 3 78 8 100 10 22 2 72 7 110 11 39 3 81 7 95 9 14 1 59 6 100 9 41 4
86 9 100 11 24 4 139 15 210 20 19 2 60 6 90 9 57 7 104 11 205 21 79 7 152
15 305 31 60 6 87 9 200 19 41 4 76 8 76 8 3 4 480 958 511 1022 19 39 46 93
61 122 15 28 306 607 647 1287 l620 1235 6 -52 c15 -121 20 -163 24 -187 2
-14 7 -47 10 -75 3 -27 10 -84 15 -125 5 -41 12 -97 15 -125 3 -27 8 -63 10
-80 3 -16 7 -48 9 -70 3 -22 9 -78 15 -125 6 -47 13 -107 16 -135 3 -27 8 -61
10 -75 2 -14 6 -47 10 -75 5 -53 10 -85 19 -150 3 -22 8 -65 11 -95 3 -30 8
-66 10 -80 2 -14 6 -52 10 -85 3 -33 7 -71 10 -85 2 -14 7 -47 10 -75 3 -27 8
-63 10 -80 2 -16 6 -50 9 -75 3 -25 17 -135 30 -245 34 -271 35 -275 40 -320
3 -22 12 -98 21 -170 9 -71 18 -141 20 -155 2 -14 6 -47 9 -75 4 -27 9 -68 11
-90 11 -87 15 -122 21 -170 3 -27 7 -61 9 -75 6 -37 13 -98 20 -160 4 -30 8
-66 10 -80 2 -14 7 -50 10 -80 3 -30 8 -66 10 -80 2 -14 7 -47 10 -75 12 -106
16 -141 20 -165 3 -14 7 -52 10 -85 3 -33 8 -71 10 -85 5 -27 8 -51 25 -200
13 -117 19 -158 25 -190 4 -24 7 -48 20 -175 4 -33 9 -71 11 -85 2 -14 13
-101 24 -195 12 -93 23 -183 25 -200 4 -27 12 -94 30 -236 l5 -45 -67 -31
c-38 -18 -126 -60 -198 -94 -71 -34 -170 -81 -220 -104 -49 -24 -148 -71 -220
-105 -71 -34 -155 -73 -185 -87 -30 -14 -133 -63 -229 -109 -95 -46 -175 -84
-176 -84 -1 0 -79 -36 -171 -81 -93 -44 -200 -96 -239 -114 -38 -18 -119 -56
-180 -85 -60 -29 -150 -72 -200 -95 -153 -73 -350 -167 -352 -169 -1 -1 -4
-15 -7 -31 -3 -17 -14 -75 -25 -130 -11 -55 -22 -111 -25 -125 -2 -14 -9 -45
-15 -70 -5 -25 -12 -61 -16 -80 -3 -19 -10 -55 -15 -80 -5 -25 -12 -56 -14
-70 -3 -14 -10 -50 -16 -80 -6 -30 -13 -64 -15 -75 -5 -32 -15 -87 -25 -130
-5 -22 -12 -56 -15 -75 -3 -19 -15 -78 -25 -130 -11 -52 -22 -111 -25 -130 -3
-19 -10 -51 -15 -70 -5 -19 -12 -53 -15 -75 -4 -22 -8 -48 -11 -57 -5 -18 -5
-16 -28 -138 -9 -47 -18 -96 -21 -110 -3 -14 -12 -61 -20 -104 -8 -43 -17 -87
-20 -96 -3 -10 -7 -31 -10 -46 -2 -16 -8 -49 -13 -74 -6 -25 -13 -62 -16 -84
-4 -21 -8 -41 -10 -45 -2 -3 -7 -24 -10 -46 -12 -77 -17 -100 -26 -135 -5 -20
-12 -52 -14 -72 -3 -20 -9 -54 -15 -75 -5 -21 -12 -55 -15 -75 -3 -21 -10 -57
-15 -80 -6 -24 -13 -59 -16 -78 -3 -19 -12 -66 -20 -105 -8 -38 -17 -88 -21
-110 -3 -22 -8 -43 -10 -46 -2 -3 -6 -21 -9 -40 -3 -19 -15 -79 -26 -134 -12
-55 -23 -113 -26 -130 -3 -16 -32 -165 -65 -330 -33 -165 -62 -311 -64 -325
-3 -14 -35 -173 -71 -355 -36 -181 -67 -339 -69 -350 -2 -11 -20 -101 -40
-200 -19 -99 -38 -193 -41 -210 -2 -16 -22 -118 -44 -225 -21 -107 -39 -198
-39 -202 0 -5 10 1 23 11 12 11 78 65 147 121 69 56 134 109 145 118 11 9 54
44 95 77 41 33 77 62 80 65 3 3 28 23 55 44 28 22 58 48 68 58 10 10 21 18 25
18 4 0 23 15 42 33 19 18 66 57 105 87 86 67 104 82 119 95 6 6 58 49 116 95
58 47 107 87 110 90 3 3 39 32 80 65 41 33 77 62 80 65 3 3 28 23 55 45 28 22
55 44 61 50 6 5 28 24 50 40 21 17 56 45 78 63 23 18 48 39 56 45 25 20 124
101 136 112 6 5 28 24 50 40 21 17 101 82 179 145 78 63 158 129 179 145 21
17 48 38 60 49 11 10 37 30 56 45 19 14 37 29 40 32 5 6 125 105 386 314 54
44 101 82 104 85 3 3 52 44 110 90 58 46 107 87 110 90 3 3 50 41 105 85 55
44 109 87 120 97 26 21 217 177 435 353 167 135 344 280 385 314 11 9 42 34
70 56 27 22 59 48 70 57 75 62 256 208 287 231 34 27 38 27 65 14 15 -8 163
-74 328 -147 165 -72 314 -138 330 -145 17 -8 129 -57 250 -110 363 -160 614
-270 920 -405 160 -71 425 -188 590 -260 165 -73 314 -138 330 -145 31 -14
391 -173 760 -335 116 -51 233 -103 260 -115 28 -12 82 -36 120 -53 39 -17 95
-42 125 -55 82 -37 215 -95 302 -133 l78 -33 -99 192 c-54 106 -174 341 -267
522 -93 182 -190 371 -216 420 -26 50 -50 97 -54 105 -3 8 -9 22 -14 31 -4 8
-56 109 -115 225 -59 115 -150 292 -202 394 -53 102 -100 191 -105 198 -6 6
-8 12 -4 12 3 0 -3 15 -13 33 -10 17 -63 118 -116 222 -101 197 -245 477 -286
555 -13 25 -24 47 -24 50 -1 6 -38 77 -65 125 -18 33 -24 58 -35 160 -3 28 -8
61 -10 75 -2 14 -13 97 -25 185 -11 88 -22 174 -24 190 -3 17 -7 53 -11 80 -8
60 -13 104 -20 148 -2 17 -11 91 -20 162 -9 72 -18 137 -20 145 -2 8 -7 42
-11 75 -3 33 -8 69 -9 80 -2 11 -6 43 -9 70 -8 62 -11 88 -25 190 -6 44 -13
98 -16 120 -3 22 -7 50 -9 62 -3 12 -7 51 -10 88 -4 37 -8 70 -10 74 -2 3 -6
33 -10 66 -3 33 -8 70 -10 82 -3 12 -7 48 -11 80 -3 32 -15 123 -26 203 -10
80 -22 165 -24 190 -3 25 -8 59 -10 75 -9 59 -15 102 -30 225 -9 69 -18 136
-20 150 -2 14 -7 45 -9 70 -6 55 -24 186 -30 220 -3 14 -7 50 -11 80 -3 30 -8
71 -10 90 -2 19 -7 58 -11 85 -3 28 -9 56 -13 62 -6 12 -204 220 -406 428 -55
57 -188 194 -295 305 -107 111 -229 237 -270 280 -41 43 -169 176 -285 295
-115 120 -239 248 -275 285 -36 37 -121 126 -190 197 -69 72 -226 235 -350
363 -124 128 -247 256 -274 284 -27 28 -106 110 -175 181 -69 72 -236 245
-371 385 -135 140 -302 313 -372 385 -69 71 -157 162 -195 202 -80 85 -415
432 -594 617 l-127 130 -143 -284 c-79 -157 -145 -292 -148 -300 -2 -8 -6 -17
-10 -20 -8 -7 -151 -298 -150 -306 0 -4 -3 -10 -8 -13 -4 -3 -336 -662 -738
-1463 -401 -802 -730 -1456 -731 -1455 -1 1 -46 112 -99 247 -53 135 -103 259
-110 275 -7 17 -25 62 -40 100 -14 39 -30 79 -35 90 -5 11 -23 56 -40 100 -17
44 -35 89 -40 100 -5 11 -125 310 -266 665 -140 355 -262 659 -269 675 -7 17
-72 181 -145 365 -72 184 -136 344 -141 355 -17 37 -190 470 -193 485 -2 8
-15 42 -29 75 -14 33 -38 92 -53 130 -15 39 -31 75 -34 80 -4 6 -10 22 -14 37
-4 18 -53 66 -157 155 -84 70 -157 133 -163 138 -6 6 -40 35 -76 65 -35 30
-70 60 -76 65 -6 6 -35 30 -64 55 -76 64 -209 177 -245 209 -17 14 -55 46 -85
71 -30 25 -62 52 -70 60 -9 8 -40 35 -70 60 -30 25 -70 59 -90 76 -54 47 -86
74 -210 179 -63 54 -129 109 -145 124 -17 14 -59 51 -95 81 -36 30 -67 57 -70
60 -5 5 -89 76 -150 127 -64 54 -199 169 -230 197 -19 17 -60 51 -90 76 -30
25 -62 52 -70 60 -9 8 -40 35 -70 60 -29 25 -122 103 -204 174 -83 70 -173
147 -200 170 -27 22 -54 46 -60 51 -42 38 -6 104 -751 -1382z"/>
</g>
</svg>
